<?xml version="1.0" standalone="no"?><!DOCTYPE svg PUBLIC "-//W3C//DTD SVG 1.1//EN" "http://www.w3.org/Graphics/SVG/1.1/DTD/svg11.dtd"><svg t="1717053970038" class="icon" viewBox="0 0 1024 1024" version="1.1" xmlns="http://www.w3.org/2000/svg" p-id="3535" xmlns:xlink="http://www.w3.org/1999/xlink" width="32" height="32"><path d="M243.91232 483.552h312.896c17.056 0 28.448-11.392 28.448-28.448s-11.392-28.448-28.448-28.448H243.91232c-17.056 0-28.448 11.392-28.448 28.448s11.392 28.448 28.448 28.448z m682.656-142.208c-17.056 0-28.448 11.392-28.448 28.448v540.448c0 31.296-25.6 56.896-56.896 56.896H158.56832c-31.296 0-56.896-25.6-56.896-56.896v-768c0-31.296 25.6-56.896 56.896-56.896h455.104c17.056 0 28.448-11.392 28.448-28.448s-11.392-28.448-28.448-28.448H158.56832A114.112 114.112 0 0 0 44.77632 142.24v768c0 62.592 51.2 113.792 113.792 113.792h682.656c62.592 0 113.792-51.2 113.792-113.792V369.792a28.512 28.512 0 0 0-28.448-28.448zM974.92032 8.544a27.456 27.456 0 0 0-39.808 0l-284.448 284.448c-11.392 11.392-11.392 28.448 0 39.808s28.448 11.392 39.808 0L974.92032 48.352a27.456 27.456 0 0 0 0-39.808zM243.91232 739.552h512c17.056 0 28.448-11.392 28.448-28.448s-11.392-28.448-28.448-28.448h-512c-17.056 0-28.448 11.392-28.448 28.448s11.392 28.448 28.448 28.448z" p-id="3536"></path></svg>