<?xml version="1.0" standalone="no"?><!DOCTYPE svg PUBLIC "-//W3C//DTD SVG 1.1//EN" "http://www.w3.org/Graphics/SVG/1.1/DTD/svg11.dtd"><svg t="1717742810530" class="icon" viewBox="0 0 1024 1024" version="1.1" xmlns="http://www.w3.org/2000/svg" p-id="4742" xmlns:xlink="http://www.w3.org/1999/xlink" width="32" height="32"><path d="M691.2 546.133333c-4.266667-46.933333-21.333333-106.666667-89.6-157.866666l-42.666667 59.733333c38.4 25.6 55.466667 55.466667 59.733334 98.133333 0 25.6-8.533333 51.2-25.6 68.266667l-196.266667 226.133333c-29.866667 34.133333-68.266667 55.466667-115.2 64-8.533333 0-12.8 4.266667-17.066667 4.266667-25.6 0-51.2-4.266667-68.266666-17.066667-34.133333-17.066667-51.2-42.666667-55.466667-51.2-21.333333-25.6-34.133333-59.733333-29.866667-98.133333v-4.266667c0-25.6 8.533333-51.2 25.6-68.266666l89.6-102.4L170.666667 516.266667l-89.6 102.4c-25.6 29.866667-42.666667 64-46.933334 106.666666-4.266667 55.466667 8.533333 106.666667 46.933334 149.333334 8.533333 12.8 34.133333 46.933333 76.8 68.266666 42.666667 25.6 76.8 38.4 110.933333 38.4 8.533333 0 21.333333 0 34.133333-4.266666 55.466667-12.8 115.2-46.933333 157.866667-89.6l196.266667-226.133334c21.333333-29.866667 34.133333-72.533333 34.133333-115.2z" p-id="4743"></path><path d="M938.666667 132.266667c-8.533333-12.8-34.133333-46.933333-76.8-68.266667-29.866667-17.066667-55.466667-25.6-89.6-25.6s-72.533333 4.266667-98.133334 17.066667c-34.133333 12.8-55.466667 34.133333-81.066666 55.466666l-213.333334 243.2c-29.866667 34.133333-46.933333 76.8-46.933333 119.466667v4.266667c0 29.866667 8.533333 55.466667 21.333333 76.8 17.066667 29.866667 42.666667 55.466667 68.266667 76.8l42.666667-59.733334c-38.4-25.6-55.466667-55.466667-59.733334-98.133333 0-25.6 8.533333-51.2 25.6-68.266667l217.6-243.2C682.666667 128 725.333333 106.666667 772.266667 106.666667c21.333333 0 42.666667 8.533333 59.733333 17.066666 34.133333 17.066667 51.2 42.666667 55.466667 51.2 21.333333 25.6 34.133333 59.733333 29.866666 98.133334-4.266667 29.866667-12.8 55.466667-29.866666 72.533333l-89.6 102.4 55.466666 51.2 89.6-102.4c25.6-29.866667 42.666667-64 46.933334-106.666667 0-59.733333-17.066667-115.2-51.2-157.866666z" p-id="4744"></path></svg>