<?xml version="1.0" standalone="no"?><!DOCTYPE svg PUBLIC "-//W3C//DTD SVG 1.1//EN" "http://www.w3.org/Graphics/SVG/1.1/DTD/svg11.dtd"><svg t="1716087123875" class="icon" viewBox="0 0 1024 1024" version="1.1" xmlns="http://www.w3.org/2000/svg" p-id="7424" xmlns:xlink="http://www.w3.org/1999/xlink" width="32" height="32"><path d="M46.4 716.8H416c-38.4-28.8-72-62.4-100.8-100.8H46.4c-25.6 0-46.4 20.8-46.4 46.4v8c0 25.6 20.8 46.4 46.4 46.4z m828.8 12.8c-9.6-22.4-35.2-35.2-59.2-25.6l-11.2 4.8c-24 8-35.2 33.6-27.2 56l80 206.4c9.6 22.4 35.2 33.6 59.2 25.6l11.2-4.8c24-8 35.2-33.6 27.2-56l-80-206.4z m-190.4 156.8H48c-25.6 0-46.4 20.8-46.4 46.4v8c0 25.6 20.8 46.4 46.4 46.4h636.8c25.6 0 46.4-20.8 46.4-46.4v-8c0-25.6-20.8-46.4-46.4-46.4zM336 420.8c6.4 35.2 17.6 68.8 33.6 100.8 17.6 35.2 41.6 65.6 70.4 92.8 36.8 35.2 81.6 60.8 129.6 76.8 88 28.8 182.4 20.8 265.6-20.8 169.6-86.4 236.8-291.2 150.4-459.2C912 67.2 750.4-1.6 598.4 33.6c-27.2 6.4-52.8 16-78.4 27.2-33.6 17.6-64 40-91.2 67.2-52.8 52.8-84.8 121.6-94.4 195.2-3.2 32-3.2 65.6 1.6 97.6zM678.4 107.2c144 0 262.4 115.2 262.4 259.2 0 142.4-116.8 259.2-262.4 259.2-144 0-262.4-115.2-262.4-259.2S532.8 107.2 678.4 107.2zM51.2 337.6c-27.2 0-49.6 22.4-49.6 49.6v9.6c0 27.2 22.4 49.6 49.6 49.6h193.6c-4.8-27.2-8-54.4-8-81.6 0-9.6 0-17.6 1.6-27.2H51.2zM46.4 152h244.8c20.8-36.8 48-72 78.4-100.8H46.4C20.8 51.2 0 72 0 97.6v8c0 25.6 20.8 46.4 46.4 46.4z" p-id="7425"></path></svg>