<?xml version="1.0" standalone="no"?><!DOCTYPE svg PUBLIC "-//W3C//DTD SVG 1.1//EN" "http://www.w3.org/Graphics/SVG/1.1/DTD/svg11.dtd"><svg t="1716086802823" class="icon" viewBox="0 0 1024 1024" version="1.1" xmlns="http://www.w3.org/2000/svg" p-id="6408" xmlns:xlink="http://www.w3.org/1999/xlink" width="32" height="32"><path d="M682.666667 85.333333a128 128 0 0 1 128 128v192a42.666667 42.666667 0 1 1-85.333334 0v-192a42.666667 42.666667 0 0 0-39.466666-42.56L682.666667 170.666667H213.333333a42.666667 42.666667 0 0 0-42.56 39.466666L170.666667 213.333333v597.333334a42.666667 42.666667 0 0 0 39.466666 42.56L213.333333 853.333333h170.666667a42.666667 42.666667 0 0 1 3.2 85.226667L384 938.666667h-170.666667a128 128 0 0 1-128-128V213.333333a128 128 0 0 1 128-128h469.333334z m128 426.666667l128 213.333333-128 213.333334H554.666667l-128-213.333334 128-213.333333h256z m-50.069334 83.413333h-155.84L526.805333 725.333333l77.952 129.898667h155.84L838.549333 725.333333l-77.952-129.92zM682.666667 661.333333a64 64 0 1 1 0 128 64 64 0 0 1 0-128zM448 426.666667a42.666667 42.666667 0 1 1 0 85.333333h-149.333333a42.666667 42.666667 0 1 1 0-85.333333h149.333333z m149.333333-192a42.666667 42.666667 0 1 1 0 85.333333H298.666667a42.666667 42.666667 0 1 1 0-85.333333h298.666666z"  p-id="6409"></path></svg>
