<?xml version="1.0" standalone="no"?><!DOCTYPE svg PUBLIC "-//W3C//DTD SVG 1.1//EN" "http://www.w3.org/Graphics/SVG/1.1/DTD/svg11.dtd"><svg t="1715670375380" class="icon" viewBox="0 0 1024 1024" version="1.1" xmlns="http://www.w3.org/2000/svg" p-id="7622" xmlns:xlink="http://www.w3.org/1999/xlink" width="32" height="32"><path d="M896 426.667a42.667 42.667 0 1 1-85.333 0 42.667 42.667 0 0 1 85.333 0z m-170.667 0a42.667 42.667 0 1 1-85.333 0 42.667 42.667 0 0 1 85.333 0zM896 597.333a42.667 42.667 0 1 1-85.333 0 42.667 42.667 0 0 1 85.333 0z m-170.667 0a42.667 42.667 0 1 1-85.333 0 42.667 42.667 0 0 1 85.333 0zM554.667 426.667a42.667 42.667 0 1 1-85.334 0 42.667 42.667 0 0 1 85.334 0z m0 170.666a42.667 42.667 0 1 1-85.334 0 42.667 42.667 0 0 1 85.334 0zM384 426.667a42.667 42.667 0 1 1-85.333 0 42.667 42.667 0 0 1 85.333 0z m0 170.666a42.667 42.667 0 1 1-85.333 0 42.667 42.667 0 0 1 85.333 0zM213.333 426.667a42.667 42.667 0 1 1-85.333 0 42.667 42.667 0 0 1 85.333 0z m0 170.666a42.667 42.667 0 1 1-85.333 0 42.667 42.667 0 0 1 85.333 0z"  p-id="7623"></path></svg>
