<?xml version="1.0" standalone="no"?><!DOCTYPE svg PUBLIC "-//W3C//DTD SVG 1.1//EN" "http://www.w3.org/Graphics/SVG/1.1/DTD/svg11.dtd"><svg t="1717514799144" class="icon" viewBox="0 0 1024 1024" version="1.1" xmlns="http://www.w3.org/2000/svg" p-id="26131" xmlns:xlink="http://www.w3.org/1999/xlink" width="32" height="32"><path d="M363.416 719.465l-253.09 251.231c-15.804 15.688-41.334 15.593-57.022-0.21-15.688-15.804-15.593-41.334 0.21-57.022l254.913-253.038H93.842c-21.268 0-38.51-17.3-38.51-38.64s17.242-38.64 38.51-38.64h308.084c21.27 0 38.51 17.3 38.51 38.64v309.12a38.709 38.709 0 0 1-11.278 27.323 38.445 38.445 0 0 1-27.232 11.317 38.445 38.445 0 0 1-27.231-11.317 38.706 38.706 0 0 1-11.28-27.323v-211.44zM658.42 308.56l255.15-255.15c15.746-15.747 41.276-15.747 57.022 0 15.746 15.745 15.746 41.275 0 57.02L718.389 362.633h209.605c21.269 0 38.511 17.299 38.511 38.64 0 21.34-17.242 38.64-38.511 38.64H619.908c-21.27 0-38.51-17.3-38.51-38.64V92.152a38.709 38.709 0 0 1 11.278-27.323 38.445 38.445 0 0 1 27.232-11.318 38.447 38.447 0 0 1 27.231 11.318 38.706 38.706 0 0 1 11.279 27.322v216.41zM49.87 397.76a38.445 38.445 0 0 1-27.231-11.318 38.706 38.706 0 0 1-11.28-27.322V50c0-21.34 17.242-38.64 38.511-38.64h308.086c21.27 0 38.51 17.3 38.51 38.64s-17.24 38.64-38.51 38.64H88.381v270.48a38.706 38.706 0 0 1-11.278 27.322A38.445 38.445 0 0 1 49.87 397.76zM974.13 1016H666.043c-21.27 0-38.51-17.3-38.51-38.64s17.24-38.64 38.51-38.64h269.576V668.24c0-21.34 17.241-38.64 38.51-38.64s38.511 17.3 38.511 38.64v309.12c0 21.34-17.242 38.64-38.511 38.64z" p-id="26132"></path></svg>