<?xml version="1.0" standalone="no"?><!DOCTYPE svg PUBLIC "-//W3C//DTD SVG 1.1//EN" "http://www.w3.org/Graphics/SVG/1.1/DTD/svg11.dtd"><svg t="1717562832065" class="icon" viewBox="0 0 1024 1024" version="1.1" xmlns="http://www.w3.org/2000/svg" p-id="6715" xmlns:xlink="http://www.w3.org/1999/xlink" width="32" height="32"><path d="M938.667 128H640c-23.467 0-42.667-19.2-42.667-42.667s19.2-42.666 42.667-42.666h298.667c23.466 0 42.666 19.2 42.666 42.666S962.133 128 938.667 128M384 128H85.333c-23.466 0-42.666-19.2-42.666-42.667s19.2-42.666 42.666-42.666H384c23.467 0 42.667 19.2 42.667 42.666S407.467 128 384 128" fill="#515152" p-id="6716"></path><path d="M896 384V85.333c0-23.466 19.2-42.666 42.667-42.666s42.666 19.2 42.666 42.666V384c0 23.467-19.2 42.667-42.666 42.667S896 407.467 896 384m-853.333 0V85.333c0-23.466 19.2-42.666 42.666-42.666S128 61.867 128 85.333V384c0 23.467-19.2 42.667-42.667 42.667S42.667 407.467 42.667 384m42.666 512H384c23.467 0 42.667 19.2 42.667 42.667s-19.2 42.666-42.667 42.666H85.333c-23.466 0-42.666-19.2-42.666-42.666S61.867 896 85.333 896M640 896h298.667c23.466 0 42.666 19.2 42.666 42.667s-19.2 42.666-42.666 42.666H640c-23.467 0-42.667-19.2-42.667-42.666S616.533 896 640 896"  p-id="6717"></path><path d="M128 938.667c0 23.466-19.2 42.666-42.667 42.666s-42.666-19.2-42.666-42.666V640c0-23.467 19.2-42.667 42.666-42.667S128 616.533 128 640v298.667z m853.333 0c0 23.466-19.2 42.666-42.666 42.666S896 962.133 896 938.667V640c0-23.467 19.2-42.667 42.667-42.667s42.666 19.2 42.666 42.667v298.667zM908.535 55.125c16.598-16.597 43.776-16.597 60.374 0 16.554 16.598 16.554 43.734 0 60.331l-286.25 286.208a42.778 42.778 0 0 1-60.332 0 42.778 42.778 0 0 1 0-60.33L908.535 55.124z"  p-id="6718"></path><path d="M341.316 622.336c16.606-16.597 43.776-16.597 60.382 0 16.555 16.597 16.555 43.733 0 60.33l-286.25 286.209a42.778 42.778 0 0 1-60.331 0 42.778 42.778 0 0 1 0-60.331l286.208-286.208z" fill="#515152" p-id="6719"></path></svg>
