<?xml version="1.0" standalone="no"?><!DOCTYPE svg PUBLIC "-//W3C//DTD SVG 1.1//EN" "http://www.w3.org/Graphics/SVG/1.1/DTD/svg11.dtd"><svg t="1717404221684" class="icon" viewBox="0 0 1024 1024" version="1.1" xmlns="http://www.w3.org/2000/svg" p-id="2800" xmlns:xlink="http://www.w3.org/1999/xlink" width="32" height="32"><path d="M546.133333 27.306667a40.96 40.96 0 0 1 6.621867 81.373866L546.133333 109.226667H204.8a95.573333 95.573333 0 0 0-95.163733 86.357333L109.226667 204.8v614.4a95.573333 95.573333 0 0 0 86.357333 95.163733L204.8 914.773333h614.4a95.573333 95.573333 0 0 0 95.163733-86.357333L914.773333 819.2V477.866667a40.96 40.96 0 0 1 81.373867-6.621867L996.693333 477.866667v341.333333a177.493333 177.493333 0 0 1-166.2976 177.152L819.2 996.693333H204.8a177.493333 177.493333 0 0 1-177.152-166.2976L27.306667 819.2V204.8A177.493333 177.493333 0 0 1 193.604267 27.648L204.8 27.306667h341.333333z m204.8 614.4a40.96 40.96 0 0 1 6.621867 81.373866L750.933333 723.626667H273.066667a40.96 40.96 0 0 1-6.621867-81.373867L273.066667 641.706667h477.866666z m182.545067-551.185067a40.96 40.96 0 0 1 4.778667 52.224l-4.778667 5.666133-307.2 307.2a40.96 40.96 0 0 1-62.6688-52.224l4.778667-5.666133 307.2-307.2a40.96 40.96 0 0 1 57.890133 0z"  p-id="2801"></path></svg>
