<?xml version="1.0" standalone="no"?><!DOCTYPE svg PUBLIC "-//W3C//DTD SVG 1.1//EN" "http://www.w3.org/Graphics/SVG/1.1/DTD/svg11.dtd"><svg t="1717155451898" class="icon" viewBox="0 0 1443 1024" version="1.1" xmlns="http://www.w3.org/2000/svg" p-id="3614" xmlns:xlink="http://www.w3.org/1999/xlink" width="45.09375" height="32"><path d="M94.738219 438.435084c-43.33141 0-78.39046 35.05905-78.39046 78.390459 0 43.33141 35.05905 78.39046 78.39046 78.39046h1055.710713L866.037315 871.1583c-31.119831 30.135026-31.907675 79.769186-1.772649 110.889017 15.362954 15.953837 35.846894 23.832275 56.330833 23.832275 19.696095 0 39.392191-7.287555 54.558184-22.059627l424.647817-412.042315c15.165993-14.772072 23.635314-34.862089 23.832276-55.936911 0-21.074822-8.469321-41.3618-23.438354-56.133872L975.744566 41.3618c-30.725909-30.528948-80.55703-30.135026-110.889017 0.787844-30.331987 30.92287-29.938065 80.55703 0.787844 110.889017l289.926524 285.593384H94.738219v-0.196961z m0 0"  p-id="3615"></path></svg>
