<?xml version="1.0" standalone="no"?><!DOCTYPE svg PUBLIC "-//W3C//DTD SVG 1.1//EN" "http://www.w3.org/Graphics/SVG/1.1/DTD/svg11.dtd"><svg t="1717067225319" class="icon" viewBox="0 0 1761 1024" version="1.1" xmlns="http://www.w3.org/2000/svg" p-id="49187" xmlns:xlink="http://www.w3.org/1999/xlink" width="55.03125" height="32"><path d="M1733.131468 369.708362A43.253535 43.253535 0 0 1 1720.311054 389.123301H49.725181C22.282124 389.123301 0 374.828336 0 345.869766 0 316.870237 22.282124 302.698151 49.725181 302.698151H1576.9518l-203.979739-207.952839a57.958099 57.958099 0 0 1 0.040959-78.519912 50.175739 50.175739 0 0 1 73.850496 0l274.307694 290.691609s0.286719 0.409598 1.474552 2.621426c1.392633 2.621426 2.211828 4.014059 3.399663 5.81629a56.934104 56.934104 0 0 1 5.447651 9.093073l1.392633 2.744305c3.522542 8.683475 4.997094 14.950322 4.997094 21.094291 0 7.086043-1.638391 14.213046-4.751335 21.462928z m0 264.108707c3.153904 7.249882 4.751335 14.335925 4.751335 21.462928 0 6.143968-1.474552 12.410815-4.997094 21.094291l-1.392633 2.744305a56.934104 56.934104 0 0 1-5.447651 9.093073 67.583649 67.583649 0 0 0-3.399663 5.81629l-1.474552 2.621426-274.307694 290.650649a50.175739 50.175739 0 0 1-73.850496 0 57.958099 57.958099 0 0 1 0-78.478952l203.93878-207.952839H49.725181c-27.443057 0-49.725181-14.213046-49.725181-43.212575C0 628.697096 22.282124 614.40213 49.725181 614.40213H1720.311054c5.939169 4.915174 9.789389 11.182022 12.820414 19.414939z"  p-id="49188"></path></svg>
