<?xml version="1.0" standalone="no"?><!DOCTYPE svg PUBLIC "-//W3C//DTD SVG 1.1//EN" "http://www.w3.org/Graphics/SVG/1.1/DTD/svg11.dtd"><svg t="1717742867739" class="icon" viewBox="0 0 1024 1024" version="1.1" xmlns="http://www.w3.org/2000/svg" p-id="5781" xmlns:xlink="http://www.w3.org/1999/xlink" width="32" height="32"><path d="M869.12 140.8c-12.8 0-32 12.8-32 32V896c0 32-19.2 64-51.2 64H247.04c-38.4 0-70.4-32-70.4-64v-64c0-32 32-74.24 64-74.24h519.68c12.8 0 12.8-6.4 12.8-19.2V128c0-64-32-128-102.4-128H247.04C183.04 0 112.64 57.6 112.64 117.76v797.44c6.4 57.6 64 102.4 115.2 108.8h558.08c64 0 115.2-57.6 115.2-128V172.8c0-19.2-19.2-32-32-32z m-622.08-76.8h430.08c12.8 0 32 19.2 32 64v565.76H240.64c-25.6 0-64 19.2-64 32V128c0-32 38.4-64 70.4-64z" p-id="5782"></path><path d="M755.2 826.88h-506.88c-12.8 0-25.6 12.8-25.6 32s12.8 32 25.6 32h500.48c12.8 0 25.6-12.8 25.6-32s-6.4-32-19.2-32z" p-id="5783"></path></svg>