<?xml version="1.0" standalone="no"?><!DOCTYPE svg PUBLIC "-//W3C//DTD SVG 1.1//EN" "http://www.w3.org/Graphics/SVG/1.1/DTD/svg11.dtd"><svg t="1718088674571" class="icon" viewBox="0 0 1024 1024" version="1.1" xmlns="http://www.w3.org/2000/svg" p-id="4666" xmlns:xlink="http://www.w3.org/1999/xlink" width="32" height="32"><path d="M886.420246 179.955583c-88.699964-88.699964-206.685664-137.579754-332.045471-137.579755-127.677383 0-247.137904 50.354611-336.259246 141.79353-9.691683 9.902371-9.480994 25.914716 0.421378 35.817087 9.902371 9.691683 25.914716 9.480994 35.817087-0.421377 79.640348-81.536546 186.038167-126.41325 300.020781-126.413251 231.125559-0.210689 419.059925 187.723677 419.059925 418.849236s-187.934366 419.059925-419.059925 419.059925-419.059925-187.934366-419.059925-419.059925v-5.267218l41.716373 41.716372c4.845841 4.845841 11.377193 7.374106 17.908543 7.374107s12.852014-2.528265 17.908544-7.374107c9.902371-9.902371 9.902371-25.914716 0-35.817087l-84.696877-84.907567c-9.902371-9.902371-25.914716-9.902371-35.817088 0l-84.907567 84.907567c-9.902371 9.902371-9.902371 25.914716 0 35.817087s25.914716 9.902371 35.817088 0l41.716373-41.716372v5.267218c0 125.359807 48.87979 243.345507 137.579754 332.045471s206.685664 137.579754 332.045471 137.579754 243.345507-48.87979 332.045471-137.579754 137.369065-206.685664 137.369065-332.045471-48.87979-243.345507-137.579754-332.04547z" p-id="4667"></path><path d="M688.794198 341.132477l-310.555219 310.344529c-9.902371 9.902371-9.902371 25.914716 0 35.817088 4.845841 4.845841 11.377193 7.374106 17.908544 7.374106s12.852014-2.528265 17.908544-7.374106l310.555218-310.555218c9.902371-9.902371 9.902371-25.914716 0-35.817088-9.902371-9.691683-25.914716-9.691683-35.817087 0.210689zM607.46834 550.135717c-35.185021 35.185021-35.185021 92.70305 0 127.888072 17.065789 17.065789 39.820174 26.546783 64.04938 26.546782s46.983591-9.480994 64.04938-26.546782c35.185021-35.185021 35.185021-92.70305 0-127.888072-17.065789-17.065789-39.820174-26.546783-64.04938-26.546782s-46.772903 9.480994-64.04938 26.546782z m92.281673 92.281673c-7.584795 7.584795-17.487166 11.587881-28.232293 11.587881s-20.647498-4.213775-28.232292-11.587881c-15.590968-15.590968-15.590968-40.873618 0-56.464585 7.584795-7.584795 17.487166-11.587881 28.232292-11.587881s20.647498 4.213775 28.232293 11.587881c15.590968 15.590968 15.590968 40.873618 0 56.464585zM438.074585 318.58878c-24.229206 0-46.983591 9.480994-64.049381 26.546783s-26.546783 39.820174-26.546782 64.04938 9.480994 46.983591 26.546782 64.04938 39.820174 26.546783 64.049381 26.546783 46.983591-9.480994 64.04938-26.546783c17.065789-17.065789 26.546783-39.820174 26.546782-64.04938s-9.480994-46.983591-26.546782-64.04938c-17.276478-17.065789-39.820174-26.546783-64.04938-26.546783z m28.232292 118.828456c-7.584795 7.584795-17.487166 11.587881-28.232292 11.587881s-20.647498-4.213775-28.232293-11.587881c-7.584795-7.584795-11.587881-17.487166-11.587881-28.232293s4.213775-20.647498 11.587881-28.232292c7.584795-7.584795 17.487166-11.587881 28.232293-11.587882s20.647498 4.213775 28.232292 11.587882c7.584795 7.584795 11.587881 17.487166 11.587882 28.232292 0 10.534438-4.003086 20.647498-11.587882 28.232293z" p-id="4668"></path></svg>