<?xml version="1.0" standalone="no"?><!DOCTYPE svg PUBLIC "-//W3C//DTD SVG 1.1//EN" "http://www.w3.org/Graphics/SVG/1.1/DTD/svg11.dtd"><svg t="1717155441534" class="icon" viewBox="0 0 1384 1024" version="1.1" xmlns="http://www.w3.org/2000/svg" p-id="2630" xmlns:xlink="http://www.w3.org/1999/xlink" width="43.25" height="32"><path d="M1291.352267 441.511067H273.595778L551.673882 167.529794c29.592427-29.120006 29.960915-76.760789 0.789887-106.353216-29.120006-29.645338-76.864722-30.006267-106.353215-0.782328L38.706365 461.759014A75.3303 75.3303 0 0 0 16.251269 515.594176a75.426673 75.426673 0 0 0 22.874605 53.721781l407.404189 395.334788c14.586459 14.172618 33.475724 21.251368 52.36499 21.251368 19.620572 0 39.241145-7.660772 53.988226-22.874606 28.906472-29.800292 28.228076-77.388164-1.630796-106.345656L278.510842 591.984587H1291.352267c41.550337 0 75.239595-33.681699 75.239595-75.239594 0-41.550337-33.689258-75.233926-75.239595-75.233926z m0 0"  p-id="2631"></path></svg>
