<?xml version="1.0" standalone="no"?><!DOCTYPE svg PUBLIC "-//W3C//DTD SVG 1.1//EN" "http://www.w3.org/Graphics/SVG/1.1/DTD/svg11.dtd"><svg t="1717512759009" class="icon" viewBox="0 0 1024 1024" version="1.1" xmlns="http://www.w3.org/2000/svg" p-id="14252" xmlns:xlink="http://www.w3.org/1999/xlink" width="32" height="32"><path d="M915.704686 315.728457H123.757714c-57.841371 0-100.600686 45.831314-100.600685 102.0928v294.575543c0 54.871771 43.4176 100.703086 100.600685 100.703086h60.3136v65.609143c0 55.998171 51.5072 95.305143 107.505372 95.305142h440.861257c55.998171 0 95.305143-39.306971 95.305143-95.305142v-65.609143h87.976228c50.922057 0 72.938057-33.1776 72.938057-100.703086V417.835886c-0.014629-78.218971-41.150171-102.107429-72.952685-102.107429zM769.214171 878.709029c0 23.683657-13.1072 36.790857-36.790857 36.790857H291.576686c-23.683657 0-48.991086-13.1072-48.991086-36.790857V686.548114c0-23.683657 25.2928-48.991086 48.991086-48.991085h440.861257c23.683657 0 36.790857 25.2928 36.790857 48.991085v192.160915z m146.490515-124.123429h-87.976229v-68.037486c0-55.998171-39.306971-107.505371-95.305143-107.505371H291.576686c-55.998171 0-107.505371 51.5072-107.505372 107.505371v68.037486H123.757714c-24.868571 0-42.0864-19.309714-42.0864-42.1888V417.835886c0-17.963886 14.160457-43.578514 42.0864-43.578515h791.946972c18.929371 0 14.423771 15.038171 14.423771 43.578515V712.411429c0 15.111314 7.416686 42.174171-14.423771 42.174171zM213.328457 298.671543a29.257143 29.257143 0 0 0 29.257143-29.257143V139.893029c0-17.963886 7.621486-43.578514 56.714971-43.578515h440.861258c18.929371 0 29.052343 15.038171 29.052342 43.578515v129.521371a29.257143 29.257143 0 0 0 58.514286 0V139.893029c0-78.218971-24.385829-102.0928-87.566628-102.0928H299.300571c-81.086171 0-115.229257 30.485943-115.229257 102.0928v129.521371a29.257143 29.257143 0 0 0 29.257143 29.257143z" fill="" p-id="14253"></path><path d="M254.785829 462.014171a14.628571 14.628571 0 1 0 0-29.257142h-43.885715a14.628571 14.628571 0 1 0 0 29.257142h43.885715zM313.300114 462.014171h43.885715a14.628571 14.628571 0 1 0 0-29.257142h-43.885715a14.628571 14.628571 0 1 0 0 29.257142zM810.671543 491.271314h-585.142857a14.628571 14.628571 0 1 0 0 29.257143h585.142857a14.628571 14.628571 0 1 0 0-29.257143zM327.928686 725.328457h175.542857a14.628571 14.628571 0 1 0 0-29.257143h-175.542857a14.628571 14.628571 0 1 0 0 29.257143zM693.642971 696.071314h-131.657142a14.628571 14.628571 0 1 0 0 29.257143h131.657142a14.628571 14.628571 0 1 0 0-29.257143zM327.928686 798.471314h87.771428a14.628571 14.628571 0 1 0 0-29.257143h-87.771428a14.628571 14.628571 0 1 0 0 29.257143zM459.585829 783.842743a14.628571 14.628571 0 0 0 14.628571 14.628571h102.4a14.628571 14.628571 0 1 0 0-29.257143h-102.4a14.628571 14.628571 0 0 0-14.628571 14.628572zM474.2144 842.357029h-146.285714a14.628571 14.628571 0 1 0 0 29.257142h146.285714a14.628571 14.628571 0 1 0 0-29.257142zM635.128686 842.357029h-102.4a14.628571 14.628571 0 1 0 0 29.257142h102.4a14.628571 14.628571 0 1 0 0-29.257142zM693.642971 769.214171h-58.514285a14.628571 14.628571 0 1 0 0 29.257143h58.514285a14.628571 14.628571 0 1 0 0-29.257143z"  p-id="14254"></path></svg>
