<?xml version="1.0" standalone="no"?><!DOCTYPE svg PUBLIC "-//W3C//DTD SVG 1.1//EN" "http://www.w3.org/Graphics/SVG/1.1/DTD/svg11.dtd"><svg t="1717391852365" class="icon" viewBox="0 0 1024 1024" version="1.1" xmlns="http://www.w3.org/2000/svg" p-id="3653" xmlns:xlink="http://www.w3.org/1999/xlink" width="32" height="32"><path d="M492.3392 461.1072H143.5648c-38.5024 0-70.6048 30.1568-70.6048 68.096v327.9872c0 37.888 32.0512 68.096 70.6048 68.096h348.672c38.4512 0 70.6048-30.1056 70.6048-68.096v-327.936c0.1536-37.888-32-68.1472-70.5024-68.1472z m-348.7744 58.88h348.7744c6.7072 0 11.6224 4.608 11.5712 9.1136v328.0896c0 4.608-4.9152 9.216-11.6736 9.216h-348.672c-6.8096 0-11.7248-4.608-11.7248-9.216v-327.936c0-4.608 4.9664-9.2672 11.7248-9.2672z" p-id="3654"></path><path d="M310.3744 568.9856c36.352 0 63.6416 11.8272 81.92 35.6864 18.432 23.808 27.5456 51.3024 27.5456 82.5344 0 13.6704-1.7408 26.624-5.3248 38.8608a108.2368 108.2368 0 0 1-13.056 29.8496l37.376 32.6656-32.1536 28.9792-32.8192-27.5456c-7.424 6.656-16.64 11.9808-27.5456 15.872a110.2848 110.2848 0 0 1-36.9152 5.8368c-32.9216 0-60.0064-11.008-81.2032-33.2288-21.0944-22.1696-31.6416-51.1488-31.6416-87.04 0-31.5904 9.728-60.0064 29.0816-84.992 19.4048-25.0368 47.7184-37.4784 84.736-37.4784z m-0.8192 37.9904c-16.0768 0-29.0816 7.3728-39.3216 21.9136-10.1376 14.6432-15.1552 34.9184-15.1552 60.928 0 25.2416 5.376 45.568 16.2816 60.8256 10.8544 15.36 23.552 22.9888 38.0928 22.9888 6.5024 0 12.3904-1.024 17.8688-2.9184a44.4416 44.4416 0 0 0 12.5952-6.7072l-29.7984-26.112 31.5392-30.8224 16.0768 15.104c1.9456-4.9664 3.072-10.496 3.4816-16.5888a244.736 244.736 0 0 0 0.512-18.6368c0-21.248-4.608-39.9872-13.9264-56.0128-9.4208-15.9744-22.1184-23.9616-38.2464-23.9616zM702.7712 568.5248l35.2256 9.6256 25.7536 231.2192-53.6576-14.6944-4.864-40.6528-75.1104-20.6336-27.3408 31.8976-46.8992-12.9024-0.2048-9.984 147.0976-173.8752z m-3.9936 74.5472l-42.9056 54.528 47.8208 13.1584-4.9152-67.6864z" p-id="3655"></path><path d="M902.4512 513.4848l-240.7936-66.048-5.7344 31.6416a27.0848 27.0848 0 0 1-4.8128 11.5712 32.1024 32.1024 0 0 1-20.992 12.4416l-126.208 16.2304v335.36l274.4832 68.4544c33.9968 9.4208 71.0144-9.6768 81.408-43.7248l88.4224-285.184c10.752-34.9696-10.24-71.0656-45.7728-80.7424z m-204.032 12.1856l4.0448-5.9904 184.4224 50.5856c4.096 1.1264 5.8368 4.096 5.12 6.5024l-88.4224 285.2864-1.024 1.7408a9.3184 9.3184 0 0 1-9.216 2.4064l-230.5536-57.5488v-237.568l75.8272-9.728c24.7808-4.096 45.824-16.64 59.8016-35.6864z" p-id="3656"></path><path d="M549.7856 70.4L220.16 125.184C166.912 134.144 130.048 183.808 140.1856 237.2608l50.688 279.808 300.032 3.7376 4.4544 0.3072c2.9184 0.3584 5.632 1.1264 7.936 2.0992l1.5872 0.8192 5.1712 55.7056 124.8768-19.2512c53.5552-8.448 90.7776-58.5216 80.7936-111.872L662.8352 148.48c-10.0864-52.9408-60.8768-86.4768-113.0496-78.08z m9.3696 58.112c19.6096-3.1232 38.4512 7.936 44.4416 25.2928l1.28 4.9152 52.9408 300.7488c3.4304 18.3296-8.2944 36.1984-26.7264 41.6256l-5.12 1.1776-63.0784 9.728c-2.6112-28.416-33.6384-47.4112-64.6656-49.8176l-6.656-0.256-251.4432-3.072-42.0864-232.6528c-3.5328-18.432 8.192-36.1472 26.6752-41.7792l5.2224-1.1776 329.216-54.7328z" p-id="3657"></path><path d="M441.2416 246.784c11.3152 8.8576 18.3296 20.7872 21.1968 35.7376 1.7408 9.3184 0.4608 19.8656-3.9424 31.488-4.4032 11.6224-13.6192 20.6336-27.8016 26.624l40.8576 31.3344a44.544 44.544 0 0 0 2.5088-12.8 64.7168 64.7168 0 0 0-1.1264-14.6944l40.8064-6.7072c1.792 9.6256 1.792 19.5584 0.1536 30.0032a93.2352 93.2352 0 0 1-8.0384 26.7264l57.0368 38.912-49.92 8.192-25.2416-17.8688a77.312 77.312 0 0 1-23.04 24.32c-10.3936 7.5776-26.0096 13.1072-46.7968 16.5888-22.528 3.7888-42.5984 0.9728-59.8016-8.6016-17.2544-9.5232-27.4944-22.4256-30.5152-39.1168a77.8752 77.8752 0 0 1 4.4032-43.5712c5.632-14.5408 17.152-25.9072 34.56-34.2528a135.8336 135.8336 0 0 1-21.76-15.616 38.1952 38.1952 0 0 1-12.0832-21.8624 48.896 48.896 0 0 1 8.8576-38.5024c8.3968-12.032 24.064-19.968 46.592-23.7568 24.064-3.9424 41.728-1.536 53.0944 7.424zM397.824 358.4c-11.1616 6.656-18.6368 13.9264-22.3744 21.9648a35.9424 35.9424 0 0 0-3.584 22.9376c1.536 8.2432 6.2976 15.0528 14.08 20.0192 7.7824 5.0176 17.8176 6.5536 29.9008 4.608 10.9568-1.8432 19.7632-5.0176 26.624-9.6768a50.3296 50.3296 0 0 0 15.5136-15.872L397.8752 358.4z m-5.5808-91.136c-7.8336 1.28-12.288 4.4032-13.824 9.5232a37.1712 37.1712 0 0 0-0.1536 17.4592 35.584 35.584 0 0 0 6.1952 15.0016 44.4416 44.4416 0 0 0 14.6432 12.4416 43.776 43.776 0 0 0 14.848-15.8208 27.2896 27.2896 0 0 0 2.3552-17.92 36.9152 36.9152 0 0 0-6.9632-16.7936c-3.2768-3.8912-9.0624-5.2736-17.1008-3.8912z" p-id="3658"></path></svg>