<?xml version="1.0" standalone="no"?><!DOCTYPE svg PUBLIC "-//W3C//DTD SVG 1.1//EN" "http://www.w3.org/Graphics/SVG/1.1/DTD/svg11.dtd"><svg t="1717742961482" class="icon" viewBox="0 0 1024 1024" version="1.1" xmlns="http://www.w3.org/2000/svg" p-id="7654" xmlns:xlink="http://www.w3.org/1999/xlink" width="32" height="32"><path d="M367.762286 369.810286V439.53981a24.380952 24.380952 0 0 0 19.992381 23.990857l4.388571 0.390095h210.261333a73.142857 73.142857 0 0 1 72.801524 66.121143l0.341334 7.021714v81.13981h-48.761905V537.063619a24.380952 24.380952 0 0 0-19.992381-23.990857l-4.388572-0.390095H392.143238A73.142857 73.142857 0 0 1 319.292952 446.561524L319.000381 439.53981V369.810286h48.761905z"  p-id="7655"></path><path d="M353.182476 233.910857m24.380953 0l243.809523 0q24.380952 0 24.380953 24.380953l0 0q0 24.380952-24.380953 24.380952l-243.809523 0q-24.380952 0-24.380953-24.380952l0 0q0-24.380952 24.380953-24.380953Z" p-id="7656"></path><path d="M353.182476 694.320762m24.380953 0l243.809523 0q24.380952 0 24.380953 24.380952l0 0q0 24.380952-24.380953 24.380953l-243.809523 0q-24.380952 0-24.380953-24.380953l0 0q0-24.380952 24.380953-24.380952Z"  p-id="7657"></path><path d="M754.980571 116.345905a97.52381 97.52381 0 0 1 97.52381 97.523809v88.892953a97.52381 97.52381 0 0 1-97.52381 97.523809H244.004571a97.52381 97.52381 0 0 1-97.523809-97.523809V213.869714a97.52381 97.52381 0 0 1 97.523809-97.523809h510.976z m0 48.761905H244.004571a48.761905 48.761905 0 0 0-48.420571 43.056761l-0.341333 5.705143v88.892953a48.761905 48.761905 0 0 0 43.105523 48.420571l5.656381 0.341333h510.976a48.761905 48.761905 0 0 0 48.420572-43.056761l0.341333-5.705143V213.869714a48.761905 48.761905 0 0 0-43.105524-48.469333l-5.656381-0.292571zM754.980571 576.75581a97.52381 97.52381 0 0 1 97.52381 97.523809v88.892952a97.52381 97.52381 0 0 1-97.52381 97.52381H244.004571a97.52381 97.52381 0 0 1-97.523809-97.52381v-88.892952a97.52381 97.52381 0 0 1 97.523809-97.523809h510.976z m0 48.761904H244.004571a48.761905 48.761905 0 0 0-48.420571 43.056762l-0.341333 5.705143v88.892952a48.761905 48.761905 0 0 0 43.105523 48.420572l5.656381 0.341333h510.976a48.761905 48.761905 0 0 0 48.420572-43.056762l0.341333-5.705143v-88.892952a48.761905 48.761905 0 0 0-43.105524-48.469333l-5.656381-0.292572z"  p-id="7658"></path></svg>
