<?xml version="1.0" standalone="no"?><!DOCTYPE svg PUBLIC "-//W3C//DTD SVG 1.1//EN" "http://www.w3.org/Graphics/SVG/1.1/DTD/svg11.dtd"><svg t="1716531245706" class="icon" viewBox="0 0 1024 1024" version="1.1" xmlns="http://www.w3.org/2000/svg" p-id="2962" xmlns:xlink="http://www.w3.org/1999/xlink" width="32" height="32"><path d="M494.933333 891.733333L213.333333 750.933333v-170.666666l281.6 140.8c4.266667 4.266667 8.533333 4.266667 17.066667 4.266666s12.8 0 17.066667-4.266666l277.333333-140.8v170.666666l-277.333333 140.8c-4.266667 4.266667-8.533333 4.266667-17.066667 4.266667s-12.8 0-17.066667-4.266667zM896 725.333333v-273.066666l-362.666667 183.466666c-8.533333 4.266667-12.8 4.266667-21.333333 4.266667s-12.8 0-17.066667-4.266667l-426.666666-213.333333C51.2 413.866667 42.666667 401.066667 42.666667 384s8.533333-29.866667 25.6-38.4l426.666666-213.333333c12.8-4.266667 25.6-4.266667 38.4 0l426.666667 213.333333c12.8 8.533333 21.333333 21.333333 21.333333 38.4v341.333333c0 25.6-17.066667 42.666667-42.666666 42.666667-21.333333 0-42.666667-17.066667-42.666667-42.666667z" p-id="2963"></path></svg>