<?xml version="1.0" standalone="no"?><!DOCTYPE svg PUBLIC "-//W3C//DTD SVG 1.1//EN" "http://www.w3.org/Graphics/SVG/1.1/DTD/svg11.dtd"><svg t="1717982920161" class="icon" viewBox="0 0 1024 1024" version="1.1" xmlns="http://www.w3.org/2000/svg" p-id="3177" xmlns:xlink="http://www.w3.org/1999/xlink" width="32" height="32"><path d="M357.923721 232.186047a100.852093 100.852093 0 1 0 0 201.704186 100.852093 100.852093 0 0 0 0-201.704186z m0 47.627906a53.224186 53.224186 0 1 1 0 106.448373 53.224186 53.224186 0 0 1 0-106.448373z m0 168.102698a131.691163 131.691163 0 0 1 131.572093 126.499721l0.095256 5.167628v200.322977a23.813953 23.813953 0 0 1-47.46121 2.786232l-0.166697-2.786232v-200.322977a84.063256 84.063256 0 0 0-167.983628-4.596093l-0.11907 4.596093v200.322977a23.813953 23.813953 0 0 1-47.461209 2.786232L226.232558 779.906977v-200.322977a131.691163 131.691163 0 0 1 131.691163-131.691163zM666.076279 232.186047a100.852093 100.852093 0 1 0 0 201.704186 100.852093 100.852093 0 0 0 0-201.704186z m0 47.627906a53.224186 53.224186 0 1 1 0 106.448373 53.224186 53.224186 0 0 1 0-106.448373z m0 168.102698a131.691163 131.691163 0 0 1 131.595907 126.499721l0.095256 5.167628v200.322977a23.813953 23.813953 0 0 1-47.461209 2.786232L750.139535 779.906977v-200.322977a84.063256 84.063256 0 0 0-167.983628-4.596093l-0.11907 4.596093v200.322977a23.813953 23.813953 0 0 1-47.461209 2.786232l-0.166698-2.786232v-200.322977a131.691163 131.691163 0 0 1 131.691163-131.691163z"  p-id="3178"></path></svg>
