<?xml version="1.0" standalone="no"?><!DOCTYPE svg PUBLIC "-//W3C//DTD SVG 1.1//EN" "http://www.w3.org/Graphics/SVG/1.1/DTD/svg11.dtd"><svg t="1717742761044" class="icon" viewBox="0 0 1024 1024" version="1.1" xmlns="http://www.w3.org/2000/svg" p-id="3732" xmlns:xlink="http://www.w3.org/1999/xlink" width="32" height="32"><path d="M187.742 74.4v875.1l326.8-195.9 321.7 195.9V74.4H187.742z m586.1 763.9L547.042 700.3c-10-6.1-21.2-9.1-32.5-9.1-11.1 0-22.3 2.9-32.1 8.9L250.242 839.2V136.9h523.5v701.4z" p-id="3733"></path><path d="M358.542 368H650.042c17.3 0 31.3-14 31.3-31.3s-14-31.3-31.3-31.3H358.542c-17.3 0-31.3 14-31.3 31.3 0 17.4 14 31.3 31.3 31.3z m0 188.2H650.042c17.3 0 31.3-14 31.3-31.3s-14-31.3-31.3-31.3H358.542c-17.3 0-31.3 14-31.3 31.3 0 17.4 14 31.3 31.3 31.3zM961.542 174.4h62.5v531.5h-62.5z" p-id="3734"></path><path d="M773.762 236.942v-62.5h250.2v62.5zM773.838 705.966v-62.5h250.2v62.5zM62.552 705.946H0.052v-531.5h62.5z" p-id="3735"></path><path d="M0 236.88v-62.5h250.2v62.5zM0.075 705.904v-62.5h250.2v62.5z" p-id="3736"></path></svg>