<?xml version="1.0" standalone="no"?><!DOCTYPE svg PUBLIC "-//W3C//DTD SVG 1.1//EN" "http://www.w3.org/Graphics/SVG/1.1/DTD/svg11.dtd"><svg t="1717742725742" class="icon" viewBox="0 0 1024 1024" version="1.1" xmlns="http://www.w3.org/2000/svg" p-id="2725" xmlns:xlink="http://www.w3.org/1999/xlink" width="32" height="32"><path d="M597 1023c-16.4 0-32.8-6.2-45.3-18.7L29 481.6C9.6 462.2-0.6 435.4 1 408.1L20.4 80.5c1.9-32.4 27.8-58.2 60.1-60.1L408.1 1.1c27.3-1.6 54.1 8.6 73.5 28l522.7 522.7c25 25 25 65.6 0 90.5l-362 362c-12.5 12.5-28.9 18.7-45.3 18.7zM413.7 64.9c-0.6 0-1.2 0-1.9 0.1L84.3 84.3 65 411.8c-0.5 9.1 2.9 18 9.3 24.5L597 959.1l362-362L436.3 74.3c-6-6-14.1-9.4-22.6-9.4z"  p-id="2726"></path><path d="M287.9 383.9c-24.6 0-49.2-9.4-67.9-28.1-37.4-37.4-37.4-98.3 0-135.8 37.4-37.4 98.3-37.4 135.8 0 37.4 37.4 37.4 98.3 0 135.8-18.7 18.7-43.3 28.1-67.9 28.1z m0-128c-8.2 0-16.4 3.1-22.6 9.4-12.5 12.5-12.5 32.8 0 45.3s32.8 12.5 45.3 0 12.5-32.8 0-45.3c-6.3-6.3-14.5-9.4-22.7-9.4z"  p-id="2727"></path></svg>
