<?xml version="1.0" standalone="no"?><!DOCTYPE svg PUBLIC "-//W3C//DTD SVG 1.1//EN" "http://www.w3.org/Graphics/SVG/1.1/DTD/svg11.dtd"><svg t="1717597374930" class="icon" viewBox="0 0 1024 1024" version="1.1" xmlns="http://www.w3.org/2000/svg" p-id="5293" xmlns:xlink="http://www.w3.org/1999/xlink" width="32" height="32"><path d="M1022.471159 517.659651c-0.455712 41.749117-5.880157 82.292802-15.788222 121.013639l-45.732924-12.260129c8.849637-34.825232 13.744868-71.267507 14.18588-108.75351h47.335266z m-18.743001 131.950731a507.310575 507.310575 0 0 1-46.761952 112.752017l-40.999397-23.652933a460.592724 460.592724 0 0 0 42.028425-101.329811l45.732924 12.230727z m-52.421603 122.542479a513.411238 513.411238 0 0 1-74.35459 96.78739l-33.472795-33.472796a465.517356 465.517356 0 0 0 66.827988-86.967527l40.999397 23.652933z m-82.366304 104.799104a511.411984 511.411984 0 0 1-96.772689 74.339889l-23.667634-40.969996a466.208275 466.208275 0 0 0 86.967527-66.842688l33.472796 33.472795z m-106.577852 80.028942a506.546154 506.546154 0 0 1-112.737316 46.776651l-12.245428-45.732923a459.593098 459.593098 0 0 0 101.329811-42.028425l23.652933 40.984697z m-123.689109 49.687329a510.485859 510.485859 0 0 1-121.013639 15.788223v-47.349967a462.518476 462.518476 0 0 0 108.75351-14.18588l12.260129 45.747624z m-132.347642 15.802923a510.691665 510.691665 0 0 1-121.013638-15.788222l12.260128-45.732924c34.854633 8.879038 71.267507 13.730167 108.75351 14.18588v47.335266z m-131.950731-18.728301a506.840162 506.840162 0 0 1-112.737316-46.776652l23.667633-40.999397a460.195814 460.195814 0 0 0 101.315111 42.028425l-12.245428 45.747624z m-122.542479-52.451004a511.309082 511.309082 0 0 1-96.757989-74.339889l33.458096-33.472795a467.472509 467.472509 0 0 0 86.967527 66.842688l-23.667634 40.969996z m-104.784403-82.351603a512.338109 512.338109 0 0 1-74.35459-96.78739l40.999397-23.652933a466.76689 466.76689 0 0 0 66.827988 86.967527l-33.472795 33.472796zM67.033794 762.362399a507.310575 507.310575 0 0 1-46.761952-112.752017l45.732924-12.230727a461.607052 461.607052 0 0 0 42.028425 101.329811L67.033794 762.362399z m-49.716731-123.689109a511.132677 511.132677 0 0 1-15.788222-121.013639h47.349967c0.441012 37.500703 5.321542 73.928278 14.185879 108.75351l-45.747624 12.260129zM1.528841 506.340349a511.132677 511.132677 0 0 1 15.788222-121.013639l45.747624 12.260129a463.385799 463.385799 0 0 0-14.185879 108.75351H1.528841z m18.728301-131.950731a507.310575 507.310575 0 0 1 46.761951-112.752017l40.999397 23.652933a460.239915 460.239915 0 0 0-42.028424 101.359212l-45.732924-12.260128z m52.451004-122.542479a512.808522 512.808522 0 0 1 74.354589-96.78739l33.472796 33.472796a464.885239 464.885239 0 0 0-66.827988 86.967527l-40.999397-23.652933z m82.366303-104.799104a511.779494 511.779494 0 0 1 96.757989-74.339889l23.667634 40.999397a464.341325 464.341325 0 0 0-86.967527 66.813287l-33.458096-33.472795z m106.563152-80.014241a506.840162 506.840162 0 0 1 112.737316-46.776652l12.245428 45.732924a460.901433 460.901433 0 0 0-101.315111 42.028424l-23.667633-40.984696z m123.674409-49.70203A510.588762 510.588762 0 0 1 506.325648 1.543541v47.349967c-37.486003 0.455712-73.913578 5.306842-108.75351 14.18588l-12.260128-45.747624zM517.659651 1.528841c41.734417 0.455712 82.263401 5.880157 121.013639 15.788222l-12.245428 45.747624a462.827184 462.827184 0 0 0-108.75351-14.185879V1.528841h-0.014701z m131.965432 18.728301A506.546154 506.546154 0 0 1 762.362399 67.033794l-23.667633 40.999397a460.004709 460.004709 0 0 0-101.329812-42.028425l12.260129-45.747624z m122.542479 52.451004a511.867696 511.867696 0 0 1 96.772689 74.339889l-33.472796 33.472795a463.856212 463.856212 0 0 0-86.967527-66.813287l23.667634-40.999397z m104.784403 82.351603a512.338109 512.338109 0 0 1 74.35459 96.78739l-41.014098 23.652933a466.134773 466.134773 0 0 0-66.827988-86.967527l33.487496-33.472796z m80.014241 106.577852a505.928738 505.928738 0 0 1 46.761952 112.752017l-45.732924 12.260128a460.533923 460.533923 0 0 0-42.028425-101.359212l40.999397-23.652933z m49.70203 123.689109a510.588762 510.588762 0 0 1 15.788223 121.013639h-47.349967a462.518476 462.518476 0 0 0-14.18588-108.75351l45.747624-12.260129z"  p-id="5294"></path></svg>
