<?xml version="1.0" standalone="no"?><!DOCTYPE svg PUBLIC "-//W3C//DTD SVG 1.1//EN" "http://www.w3.org/Graphics/SVG/1.1/DTD/svg11.dtd"><svg t="1716793115302" class="icon" viewBox="0 0 1024 1024" version="1.1" xmlns="http://www.w3.org/2000/svg" p-id="5486" xmlns:xlink="http://www.w3.org/1999/xlink" width="32" height="32"><path d="M877.292984 470.783412a41.215948 41.215948 0 0 0 40.959948 47.35994c20.031975 0 37.759953-14.719982 40.831949-35.199956L1023.9168 48.19194V47.359941l0.192-2.367997V44.543944C1024.2368 43.711945 1024.2368 42.815946 1024.2368 41.983948V38.655952a17.087979 17.087979 0 0 0-0.256-2.431997V36.031955l-0.319999-2.303997-0.128-0.639999c-0.128-0.831999-0.32-1.535998-0.575999-2.367997V30.719962a16.25598 16.25598 0 0 0-0.767999-2.559997c0-0.128 0-0.128-0.128-0.192l-0.895999-2.431997V25.343968c-0.703999-1.727998-1.599998-3.327996-2.559997-4.927994V20.287975a40.19195 40.19195 0 0 0-3.071996-4.543995l-0.128-0.128-1.471998-1.855997a26.879966 26.879966 0 0 1-2.047998-2.303997l-0.127999-0.128c-0.639999-0.447999-1.087999-1.023999-1.599998-1.471998l-0.384-0.192c-0.192-0.128-0.32-0.384-0.575999-0.511999l-1.599998-1.279999c-0.128-0.064-0.256-0.064-0.256-0.192l-0.064-0.127999a39.67995 39.67995 0 0 0-4.735994-2.815997c-0.128 0-0.128-0.128-0.192-0.128a48.959939 48.959939 0 0 0-7.67999-3.135996h-0.128c-1.727998-0.447999-3.583996-0.767999-5.311993-1.151998h-0.32a18.751977 18.751977 0 0 0-2.559997-0.192h-0.064C985.452848 0 984.55685 0 983.724851 0h-0.576c-0.639999 0-1.343998 0-2.047997 0.128h-0.575999c-0.831999 0.128-1.599998 0.128-2.559997 0.192-0.064 0-0.32 0-0.448 0.127999l-2.047997 0.384-0.575999 0.064a36.351955 36.351955 0 0 0-5.055994 1.407998l-0.32 0.128a33.919958 33.919958 0 0 0-5.119993 2.303997L22.318052 495.74338A41.151949 41.151949 0 0 0 20.078055 567.67929l222.079723 135.231831a41.279948 41.279948 0 0 0 43.007946-70.591911L125.677923 535.167331 814.509062 175.99978l-413.055484 484.287395a41.023949 41.023949 0 0 0-9.855987 26.879966v295.551631a41.279948 41.279948 0 1 0 82.559897 0v-280.44765l446.911441-524.159345-43.775945 292.671635z"  p-id="5487"></path><path d="M949.292894 586.943266A254.399682 254.399682 0 0 0 768.23712 511.99936a254.399682 254.399682 0 0 0-181.055774 74.943906A254.399682 254.399682 0 0 0 512.23744 767.99904c0 68.287915 26.559967 132.671834 74.943906 181.055774A254.399682 254.399682 0 0 0 768.23712 1023.99872a254.399682 254.399682 0 0 0 181.055774-74.943906A254.399682 254.399682 0 0 0 1024.2368 767.99904a254.399682 254.399682 0 0 0-74.943906-181.055774zM768.23712 595.839255c82.047897 0 150.975811 57.791928 168.12779 134.719832a41.279948 41.279948 0 0 0-18.559977-4.287995l-298.239627-0.128a42.175947 42.175947 0 0 0-19.455976 4.799994A172.351785 172.351785 0 0 1 768.23712 595.839255z m0 344.31957a172.479784 172.479784 0 0 1-168.12779-134.847832 42.175947 42.175947 0 0 0 19.519976 4.799994l298.047627 0.064a40.447949 40.447949 0 0 0 18.431977-4.287994A172.415784 172.415784 0 0 1 768.23712 940.158825z"  p-id="5488"></path></svg>
